<?xml version="1.0" encoding="utf-8"?>
<svg version="1.1" xmlns="http://www.w3.org/2000/svg" xmlns:xlink="http://www.w3.org/1999/xlink" x="0px" y="0px" width="100" height="50"
	 viewBox="0 0 100 50">

<g id="Capa_5">
	<path stroke="white" stroke-width="1" fill="none" stroke-miterlimit="10" stroke-dasharray="120" d="M5.16,42.78V7.02h12.21c0.85,0,1.77,0.06,2.77,0.18
		c1,0.12,1.98,0.35,2.96,0.69c0.98,0.34,1.86,0.83,2.66,1.48c0.79,0.65,1.43,1.49,1.9,2.53c0.48,1.04,0.72,2.32,0.72,3.86
		c0,1.74-0.32,3.2-0.95,4.38c-0.63,1.18-1.38,2.09-2.26,2.73c-0.88,0.64-1.68,1.02-2.41,1.14c0.66,0.07,1.41,0.28,2.24,0.64
		c0.83,0.36,1.61,0.88,2.35,1.56c0.74,0.68,1.35,1.55,1.84,2.62s0.73,2.35,0.73,3.84c0,2.2-0.43,4.04-1.28,5.54
		c-0.85,1.5-2.04,2.64-3.56,3.41c-1.52,0.78-3.3,1.16-5.33,1.16H5.16z M11.34,22.04h5.36c1.02,0,1.96-0.2,2.81-0.59
		c0.85-0.39,1.53-0.99,2.04-1.79c0.51-0.8,0.77-1.81,0.77-3.04c0-0.99-0.14-1.8-0.41-2.44c-0.27-0.64-0.66-1.15-1.17-1.52
		s-1.12-0.63-1.83-0.78c-0.71-0.14-1.5-0.22-2.39-0.22h-5.19V22.04z M11.34,38.13h6.26c1.17,0,2.22-0.2,3.14-0.59
		s1.64-1.02,2.16-1.88c0.52-0.86,0.78-2,0.78-3.41c0-1.48-0.31-2.63-0.92-3.45c-0.61-0.82-1.39-1.38-2.32-1.7
		c-0.94-0.31-1.89-0.47-2.86-0.47h-6.23V38.13z"/>
		<animate id="b1" attributetype="XML" attributeName="stroke-dashoffset" values="120;0" dur="0.3s" begin="mouseover" >
		</animate>
		<rect width="100" height="50" opacity="0"/>
</g>
<g id="Capa_4">
		<path stroke="white" fill="none" stroke-width="1" stroke-miterlimit="10" stroke-dasharray="190" d="M37.11,42.78V7.02h6.18v14.87h13V7.02h6.18v35.76h-6.18
		v-16.3h-13v16.3H37.11z"/>
		<animate id="h" attributetype="XML" attributeName="stroke-dashoffset" values="190;0" dur="0.3s" begin="b1.end" fill="freeze">
		</animate>
</g>
<g id="Capa_3">
	<path stroke="white" stroke-width="1" fill="none" stroke-miterlimit="10" stroke-dasharray="120" d="M71.57,42.78V7.02h12.21c0.85,0,1.78,0.06,2.77,0.18
		c1,0.12,1.98,0.35,2.96,0.69c0.98,0.34,1.86,0.83,2.66,1.48c0.79,0.65,1.43,1.49,1.9,2.53c0.48,1.04,0.71,2.32,0.71,3.86
		c0,1.74-0.32,3.2-0.95,4.38c-0.63,1.18-1.38,2.09-2.26,2.73c-0.88,0.64-1.68,1.02-2.41,1.14c0.66,0.07,1.41,0.28,2.23,0.64
		c0.83,0.36,1.61,0.88,2.35,1.56c0.74,0.68,1.35,1.55,1.84,2.62s0.73,2.35,0.73,3.84c0,2.2-0.43,4.04-1.28,5.54
		c-0.85,1.5-2.04,2.64-3.56,3.41c-1.52,0.78-3.3,1.16-5.33,1.16H71.57z M77.75,22.04h5.36c1.02,0,1.96-0.2,2.81-0.59
		c0.85-0.39,1.53-0.99,2.04-1.79c0.51-0.8,0.77-1.81,0.77-3.04c0-0.99-0.14-1.8-0.41-2.44c-0.27-0.64-0.66-1.15-1.18-1.52
		c-0.51-0.37-1.12-0.63-1.83-0.78c-0.71-0.14-1.5-0.22-2.39-0.22h-5.19V22.04z M77.75,38.13h6.26c1.17,0,2.22-0.2,3.14-0.59
		c0.92-0.39,1.64-1.02,2.16-1.88c0.52-0.86,0.78-2,0.78-3.41c0-1.48-0.31-2.63-0.92-3.45c-0.61-0.82-1.39-1.38-2.32-1.7
		c-0.94-0.31-1.89-0.47-2.86-0.47h-6.23V38.13z"/>
		<animate id="b2" attributetype="XML" attributeName="stroke-dashoffset" values="120;0" dur="0.3s" begin="h.end">
		</animate>
</g>
</svg>
