<?xml version="1.0" encoding="utf-8"?>
<svg version="1.1" xmlns="http://www.w3.org/2000/svg" xmlns:xlink="http://www.w3.org/1999/xlink" x="0px" y="0px" style="margin" width="500px" height="250px" viewBox="0 0 500 250">

<g id="Dario">
	<path fill="#FBDFD1" d="M121.42,101.1c0,40.48-20.76,73.3-49.56,73.3s-49.59-32.82-49.59-73.3c0-18.68-2.46-41.18,2.03-55.4
		C29.69,28.65,56.34,27.8,71.86,27.8c17.02,0,40.88-3.67,43.41,15.94C119.88,79.45,121.42,84.53,121.42,101.1z"/>
	<path fill="#3A3938" d="M121.08,109.07c-1.99-0.22-2.08,13.21-4.72,22.29c-2.65,9.13-7.86,13.91-10.85,13.07
		c-3.03-0.86-1.78-6.59-6.05-11.53c-6.74-7.79-19.46-15.75-25.48-15.75c-0.49,0-0.98,0.01-1.47,0.03c-0.49-0.02-0.98-0.03-1.47-0.03
		c-6.02,0-18.75,7.96-25.48,15.75c-4.26,4.94-3.02,10.67-6.05,11.53c-2.97,0.84-8.39-6.29-11.03-15.37
		c-2.65-9.13-2.53-20.21-4.53-19.99c-4,0.45-1.64,24.23-1.76,28.83c-0.31,12.67,24.98,60.97,49.88,61.1c0.15,0,0.3,0,0.44,0
		c0.14,0,0.29,0,0.44,0c24.9-0.13,50.19-48.42,49.88-61.1C122.72,133.31,125.08,109.53,121.08,109.07z M76.91,154.04
		c-0.8,0-1.6-0.04-2.38-0.11c-0.16-0.01-0.32-0.03-0.48-0.05c-0.16,0.02-0.32,0.03-0.48,0.05c-0.78,0.07-1.57,0.11-2.38,0.11
		c-9.42,0-18.57,0.96-18.57-8.45c0-9.42,9.15-18.45,18.57-18.45c0.8,0,1.6,0.02,2.38,0.07c0.16,0.01,0.32,0.02,0.48,0.03
		c0.16-0.01,0.32-0.02,0.48-0.03c0.78-0.05,1.57-0.07,2.38-0.07c9.42,0,18.57,9.03,18.57,18.45C95.48,155,86.33,154.04,76.91,154.04
		z"/>
	<path fill="#3A3938" d="M74.54,127.21v0.07c-0.16-0.01-0.32-0.03-0.48-0.04C74.22,127.23,74.38,127.22,74.54,127.21z"/>
	<path fill="#3A3938" d="M74.54,153.82v0.11c-0.16-0.01-0.32-0.03-0.48-0.05C74.22,153.86,74.38,153.84,74.54,153.82z"/>
	<path fill="#3A3938" d="M74.06,153.88c-0.16,0.02-0.32,0.03-0.48,0.05v-0.11C73.74,153.84,73.9,153.86,74.06,153.88z"/>
	<path fill="#3A3938" d="M74.06,127.24c-0.16,0.01-0.32,0.02-0.48,0.04v-0.07C73.74,127.22,73.9,127.23,74.06,127.24z"/>
	<path fill="#1D1D1B" d="M116.81,41.83c0.53,4.65,4.6,44.66,1.95,44.58c0,0-4.63-34.92-15.01-46.11s-29.59-5.76-37.28-5.76
		c-3.3,0-25.91,1.25-34.64,15.58C21.66,66.78,24.3,90.69,21.6,90.7c-1.97,0-2.72-34.03-2.72-46.95c0-20.06,42.51-42.27,62.57-42.27
		c9.57,0,10.55,12.04,19.6,17.68C114.5,27.53,115.27,28.37,116.81,41.83z"/>
	<path fill="#1D1D1B" d="M30.37,75.7c0,2.07,9.52-1.1,14.7-0.72c7.38,0.53,14.7,0.56,14.7-1.51c0-2.07-5.4-2.16-14.7-2.16
		C37.67,71.3,30.37,73.63,30.37,75.7z"/>
	<path fill="#1D1D1B" d="M110.18,75.64c0,2.07-9.52-1.1-14.7-0.72c-7.38,0.53-14.7,0.56-14.7-1.51c0-2.07,5.4-2.16,14.7-2.16
		C102.89,71.24,110.18,73.57,110.18,75.64z"/>
	<animateTransform attributeType="XML" attributeName="transform" type="translate" repeatCount="indefinite" dur="1s" calcMode="spline" 
	keyTimes="0;0.5;1" values="0,50;0,0;0,50" keySplines="0 0.5 0.5 1;0 0.5 0.5 1" begin="-0.2s"></animateTransform>
</g>
<g id="Fer">
	<path fill="#FDEAD7" d="M298.54,105.62c0,12.44-5.67,36.37-9.14,46.78c-3.87,11.61-29.54,30.6-46.78,30.6
		c-13.24,0-35.52-20.05-39.75-36.23c-1.19-4.56-1.78-13.19-2.53-20.33c-0.78-7.45-1.69-13.45-1.69-20.12
		c0-19.05,1.19-47.45,9.5-60.85c9.05-14.6,24.72-18.94,37.99-18.94c14.38,0,35.96,2,45.09,18.53
		C298.26,57.8,298.54,88.3,298.54,105.62z"/>
	<path fill="#1D1D1B" d="M207.33,74.66c0,1.29,5.27-2.74,14.75-1.75c8.22,0.86,15.57,2.88,15.57-1.37c0-5.27-5.61-4.46-15.99-4.46
		C213.39,67.08,207.33,72.14,207.33,74.66z"/>
	<path fill="#1D1D1B" d="M291.52,75.85c0,1.29-5.27-2.74-14.75-1.75c-8.22,0.86-15.57,2.88-15.57-1.37c0-5.27,5.61-4.46,15.99-4.46
		C285.45,68.28,291.52,73.33,291.52,75.85z"/>
	<path fill="#1D1D1B" d="M298.54,100.4c0-2.54,4-18.94,4.05-37.42c0.01-5.35,0.13-15.89-2.43-19.49
		c-1.85-2.61,6.32-15.43-8.65-26.66C280.48,8.55,259.05,9,250.78,9c-7.77,0-36.35,6.95-46.62,20.15
		c-7.83,10.07-4.8,16.08-5.51,17.89c-9.48,24.25,0.03,50.02,0.03,53.85c0,2.67,0.16-9.85,3.55-23.78c1.08-4.46,3.57-7.37,5.09-12.18
		c1.5-4.75-0.32-12.36,2.19-16.38c8.16-13.09,29.1-14.37,39.08-14.37c10.42,0,29.96,0.46,38.01,12.86
		c2.88,4.43,2.01,12.36,3.64,17.9c1.43,4.86,4.48,8.33,5.52,12.83C298.91,91.24,298.54,102.88,298.54,100.4z"/>
	<animateTransform attributeType="XML" attributeName="transform" type="translate" repeatCount="indefinite" dur="1s" calcMode="spline" 
	keyTimes="0;0.5;1" values="0,50;0,0;0,50" keySplines="0 0.5 0.5 1;0 0.5 0.5 1" begin="-0.1s"></animateTransform>
</g>
<g id="Alan">
	<path fill="#FBDFD1" d="M479.77,109.09c0,47.3-23.26,73.91-56.92,73.91s-52.35-31.93-55.86-70.53
		c-2.05-22.54,0.57-44.75,5.82-61.37c6.3-19.92,32.74-24.94,50.87-24.94c19.88,0,40.21,3.02,47.39,18.14
		C485.29,74.22,479.77,89.74,479.77,109.09z"/>
	<path fill="#3F3F3E" d="M473.3,35.3c2.79,5.31,5.77,10.59,7.97,21.84c3.49,17.88,1.05,40.07-2.11,38.8c0,0,2.07-32.03-8.25-47.53
		c-11.67-17.53-40.47-19.79-46.88-19.79c-4.7,0-36.74,2.54-47.43,17.95c-12.61,18.18-6.05,50.64-8.69,50.64
		c-1.61,0-6.41-22.25-1.61-41.19c3.06-12.07,8.37-17.94,11.16-22.42c0,0-0.78-7.14,6.39-10.14c5.23-2.19,8.84-1.33,8.84-1.33
		s-0.08-3.95,6.34-6.67c6.67-2.84,10.47,0.33,10.85,0.17c0,0,1.54-6.34,12.85-6.34c10.05,0,12.66,5.31,12.66,5.31
		s3.81-3.99,11.04-1.64c7.68,2.5,7.34,7.34,7.34,7.34s7.84-1,12.85,2.84C474.07,28.83,472.31,33.42,473.3,35.3z"/>
	<path fill="#1D1D1B" d="M483.79,75.9c-0.89-1.96-18.66-4.51-26.66-4.51c-7.69,0-25.16,0.17-26.02,2.85
		c-0.09,0.26-0.16,0.57-0.23,0.93c-2.63,0.57-4.87,0.68-7.3,0.68c-2.34,0-5.35-0.47-7.36-0.8c-0.06-0.31-0.13-0.58-0.2-0.81
		c-0.86-2.68-18.33-2.85-26.02-2.85c-8,0-25.78,2.55-26.66,4.51c-0.17,0.36,0.04,4.89,0.49,5.57c0.14,0.2,1,0.04,1.48,1.11
		c0.99,2.19,1.88,6.53,2.23,8.76c1.61,10.15,4.4,13.77,5.35,14.61c1.64,1.46,9.99,1.43,16.73,1.43c6.38,0,17.29-1.48,19.44-2.32
		c2.61-1.03,4.37-8.55,6.05-12.83c0.95-2.42,1.46-7.3,1.48-11.49c1.78-1.76,5.21-1.24,6.97-1.24c2.63,0,4.98-0.05,6.93,0.74
		c-0.01,4.3,0.49,9.47,1.48,11.98c1.68,4.28,3.44,11.8,6.05,12.83c2.15,0.84,13.06,2.32,19.44,2.32c6.74,0,15.09,0.03,16.73-1.43
		c0.95-0.84,3.74-4.46,5.35-14.61c0.35-2.23,1.24-6.57,2.23-8.76c0.48-1.07,1.35-0.91,1.48-1.11
		C483.75,80.79,483.95,76.26,483.79,75.9z M411.81,91.85c-1.46,3.72-2.99,10.25-5.26,11.14c-1.87,0.73-11.34,2.01-16.87,2.01
		c-5.86,0-13.1,0.03-14.53-1.24c-0.82-0.73-3.24-3.87-4.64-12.68c-0.3-1.94-1.05-10.36-0.65-13.19c0.27-1.85,13.19-4.13,20.14-4.13
		c6.68,0,21.84,0.15,22.58,2.47C413.48,79.04,413.17,88.38,411.81,91.85z M476.62,91.08c-1.4,8.81-3.82,11.95-4.64,12.68
		c-1.43,1.27-8.67,1.24-14.53,1.24c-5.54,0-15-1.27-16.87-2.01c-2.27-0.89-3.8-7.42-5.26-11.14c-1.36-3.48-1.67-12.81-0.77-15.62
		c0.74-2.32,15.9-2.47,22.58-2.47c6.95,0,19.87,2.28,20.14,4.13C477.67,80.72,476.92,89.15,476.62,91.08z"/>
	<path transform="rotate(90 1 1)" fill="#1D1D1B" d="M373.85,70.42c0,2.82,11.86-1.5,18.32-0.99c9.2,0.73,18.32,0.76,18.32-2.06c0-2.82-6.74-2.94-18.32-2.94
		C382.94,64.43,373.85,67.6,373.85,70.42z">
		<animateTransform attributeType="XML" attributeName="transform" type="translate" repeatCount="indefinite" dur="1s" calcMode="spline" 
	keyTimes="0;0.5;1" values="0,-5;0,0;0,-5" keySplines="0 0.5 0.5 1;0 0.5 0.5 1"></animateTransform>
		</path>
	<path fill="#1D1D1B" d="M473.09,65.21c-0.23,2.81-11.7-2.44-18.19-2.45c-9.23-0.01-18.33-0.71-18.1-3.52
		c0.23-2.81,6.95-2.4,18.5-1.47C464.5,58.52,473.31,62.4,473.09,65.21z"/>
	<animateTransform attributeType="XML" attributeName="transform" type="translate" repeatCount="indefinite" dur="1s" calcMode="spline" 
	keyTimes="0;0.5;1" values="0,50;0,0;0,50" keySplines="0 0.5 0.5 1;0 0.5 0.5 1"></animateTransform>
</g>
</svg>
