<svg width="340" height="383" viewBox="0 0 340 383" fill="none" xmlns="http://www.w3.org/2000/svg">
<path d="M315.714 43H24.2857C10.8731 43 0 53.8731 0 67.2857V358.714C0 372.127 10.8731 383 24.2857 383H315.714C329.127 383 340 372.127 340 358.714V67.2857C340 53.8731 329.127 43 315.714 43Z" fill="#F7E1D6"/>
<path d="M24.2857 30C10.8731 30 0 40.8731 0 54.2857V189.038C0 189.57 0.41819 190 0.934067 190C13.8308 190 24.2857 178.276 24.2857 165V132.143C24.2857 125.437 29.7223 120 36.4286 120V120C43.1349 120 48.5714 114.563 48.5714 107.857V80C48.5714 68.9543 57.5257 60 68.5714 60H271.429C282.474 60 291.429 68.9543 291.429 80V107.857C291.429 114.563 296.865 120 303.571 120V120C310.278 120 315.714 125.437 315.714 132.143V165C315.714 178.276 326.169 190 339.065 190C339.582 190 340 189.57 340 189.038V54.2857C340 40.8731 329.127 30 315.714 30V30V30C315.714 21.7157 308.999 15 300.714 15H194.286V15C194.286 6.71573 187.57 0 179.286 0H39.2857C31.0014 0 24.2857 6.71573 24.2857 15V30V30Z" fill="#1C1C1C"/>
<path d="M135 263H205Z" fill="black"/>
<path d="M135 263H205" stroke="#DDC2B4" stroke-width="5" stroke-linecap="round"/>
<path d="M135 145H60Z" fill="black"/>
<path d="M135 145H60" stroke="#1C1C1C" stroke-width="15" stroke-linecap="round"/>
<path d="M280 145H205Z" fill="black"/>
<path d="M280 145H205" stroke="#1C1C1C" stroke-width="15" stroke-linecap="round"/>
<path d="M228 175C228 169.477 232.477 165 238 165V165C243.523 165 248 169.477 248 175V185C248 190.523 243.523 195 238 195V195C232.477 195 228 190.523 228 185V175Z" fill="black"/>
<path d="M97 175C97 169.477 101.477 165 107 165V165C112.523 165 117 169.477 117 175V185C117 190.523 112.523 195 107 195V195C101.477 195 97 190.523 97 185V175Z" fill="black"/>
</svg>
